<svg width="52" height="53" viewBox="0 0 52 53" fill="none" xmlns="http://www.w3.org/2000/svg">
<path d="M8.66624 30.5105C8.25623 30.5119 7.85424 30.397 7.50698 30.179C7.15971 29.961 6.88142 29.649 6.70443 29.2791C6.52745 28.9093 6.45904 28.4968 6.50716 28.0896C6.55527 27.6824 6.71793 27.2973 6.97624 26.9789L28.4262 4.87886C28.5871 4.69314 28.8064 4.56763 29.048 4.52295C29.2897 4.47826 29.5393 4.51705 29.756 4.63295C29.9727 4.74885 30.1435 4.93497 30.2405 5.16076C30.3374 5.38655 30.3547 5.6386 30.2896 5.87553L26.1296 18.9189C26.0069 19.2472 25.9657 19.6003 26.0095 19.948C26.0533 20.2958 26.1808 20.6277 26.3811 20.9153C26.5814 21.2029 26.8484 21.4376 27.1593 21.5994C27.4703 21.7611 27.8158 21.845 28.1662 21.8439H43.3329C43.7429 21.8425 44.1449 21.9574 44.4922 22.1754C44.8394 22.3934 45.1177 22.7054 45.2947 23.0753C45.4717 23.4451 45.5401 23.8576 45.492 24.2648C45.4439 24.6719 45.2812 25.0571 45.0229 25.3755L23.5729 47.4755C23.412 47.6612 23.1927 47.7868 22.9511 47.8314C22.7095 47.8761 22.4598 47.8373 22.2432 47.7214C22.0265 47.6055 21.8556 47.4194 21.7587 47.1936C21.6617 46.9678 21.6444 46.7158 21.7096 46.4789L25.8696 33.4355C25.9922 33.1072 26.0334 32.7541 25.9896 32.4063C25.9458 32.0586 25.8183 31.7267 25.618 31.4391C25.4178 31.1515 25.1507 30.9167 24.8398 30.755C24.5289 30.5933 24.1834 30.5094 23.8329 30.5105H8.66624Z" stroke="white" stroke-width="4.33333" stroke-linecap="round" stroke-linejoin="round"/>
</svg>
