<svg width="53" height="53" viewBox="0 0 53 53" fill="none" xmlns="http://www.w3.org/2000/svg">
<path d="M43.6706 28.3436C43.6706 39.1769 36.0872 44.5936 27.0739 47.7353C26.6019 47.8952 26.0892 47.8875 25.6222 47.7136C16.5872 44.5936 9.00391 39.1769 9.00391 28.3436V13.1769C9.00391 12.6023 9.23218 12.0512 9.63851 11.6449C10.0448 11.2385 10.5959 11.0103 11.1706 11.0103C15.5039 11.0103 20.9206 8.41025 24.6906 5.11692C25.1496 4.72475 25.7335 4.50928 26.3372 4.50928C26.941 4.50928 27.5249 4.72475 27.9839 5.11692C31.7756 8.43192 37.1706 11.0103 41.5039 11.0103C42.0785 11.0103 42.6296 11.2385 43.036 11.6449C43.4423 12.0512 43.6706 12.6023 43.6706 13.1769V28.3436Z" stroke="white" stroke-width="4.33333" stroke-linecap="round" stroke-linejoin="round"/>
</svg>
