<svg width="24" height="24" viewBox="0 0 24 24" fill="none" xmlns="http://www.w3.org/2000/svg">
<g clip-path="url(#clip0_476_747)">
<path d="M20.2412 5.253C19.7498 4.76134 19.1663 4.37131 18.5241 4.10521C17.8819 3.83911 17.1935 3.70215 16.4984 3.70215C15.8032 3.70215 15.1149 3.83911 14.4727 4.10521C13.8304 4.37131 13.247 4.76134 12.7555 5.253L11.7356 6.2729L10.7157 5.253C9.72305 4.26034 8.37671 3.70266 6.97287 3.70266C5.56903 3.70266 4.22269 4.26034 3.23002 5.253C2.23736 6.24566 1.67969 7.59201 1.67969 8.99585C1.67969 10.3997 2.23736 11.746 3.23002 12.7387L4.24993 13.7586L11.7356 21.2443L19.2213 13.7586L20.2412 12.7387C20.7329 12.2473 21.1229 11.6638 21.389 11.0216C21.6551 10.3793 21.7921 9.691 21.7921 8.99585C21.7921 8.30069 21.6551 7.61234 21.389 6.97013C21.1229 6.32792 20.7329 5.74443 20.2412 5.253Z" stroke="white" stroke-width="1.92434" stroke-linecap="round" stroke-linejoin="round"/>
</g>
<defs>
<clipPath id="clip0_476_747">
<rect width="23.0921" height="23.0921" fill="white" transform="translate(0.191406 0.817322)"/>
</clipPath>
</defs>
</svg>
