<svg width="52" height="53" viewBox="0 0 52 53" fill="none" xmlns="http://www.w3.org/2000/svg">
<path d="M30.3281 39.1776V13.1776C30.3281 12.0283 29.8716 10.9261 29.0589 10.1134C28.2463 9.30078 27.1441 8.84424 25.9948 8.84424H8.66146C7.51219 8.84424 6.40999 9.30078 5.59733 10.1134C4.78467 10.9261 4.32813 12.0283 4.32812 13.1776V37.0109C4.32813 37.5855 4.5564 38.1366 4.96273 38.543C5.36906 38.9493 5.92016 39.1776 6.49479 39.1776H10.8281" stroke="white" stroke-width="4.33333" stroke-linecap="round" stroke-linejoin="round"/>
<path d="M32.5 39.1772H19.5" stroke="white" stroke-width="4.33333" stroke-linecap="round" stroke-linejoin="round"/>
<path d="M41.1615 39.1769H45.4948C46.0694 39.1769 46.6205 38.9486 47.0269 38.5423C47.4332 38.136 47.6615 37.5849 47.6615 37.0103V29.1019C47.6606 28.6102 47.4925 28.1334 47.1848 27.7499L39.6448 18.3249C39.4422 18.0712 39.1851 17.8662 38.8925 17.7252C38.6 17.5842 38.2795 17.5107 37.9548 17.5103H30.3281" stroke="white" stroke-width="4.33333" stroke-linecap="round" stroke-linejoin="round"/>
<path d="M36.8333 43.5109C39.2266 43.5109 41.1667 41.5708 41.1667 39.1776C41.1667 36.7843 39.2266 34.8442 36.8333 34.8442C34.4401 34.8442 32.5 36.7843 32.5 39.1776C32.5 41.5708 34.4401 43.5109 36.8333 43.5109Z" stroke="white" stroke-width="4.33333" stroke-linecap="round" stroke-linejoin="round"/>
<path d="M15.1615 43.5109C17.5547 43.5109 19.4948 41.5708 19.4948 39.1776C19.4948 36.7843 17.5547 34.8442 15.1615 34.8442C12.7682 34.8442 10.8281 36.7843 10.8281 39.1776C10.8281 41.5708 12.7682 43.5109 15.1615 43.5109Z" stroke="white" stroke-width="4.33333" stroke-linecap="round" stroke-linejoin="round"/>
</svg>
