<svg width="58" height="58" viewBox="0 0 58 58" fill="none" xmlns="http://www.w3.org/2000/svg">
<rect x="-0.5" y="0.5" width="57" height="57" rx="28.5" transform="matrix(-1 0 0 1 57 0)" fill="#616D6B"/>
<rect x="-0.5" y="0.5" width="57" height="57" rx="28.5" transform="matrix(-1 0 0 1 57 0)" stroke="white"/>
<path d="M37.0498 21.4354C36.5584 20.9437 35.9749 20.5537 35.3327 20.2876C34.6905 20.0215 34.0021 19.8845 33.307 19.8845C32.6118 19.8845 31.9235 20.0215 31.2812 20.2876C30.639 20.5537 30.0555 20.9437 29.5641 21.4354L28.5442 22.4553L27.5243 21.4354C26.5316 20.4427 25.1853 19.885 23.7815 19.885C22.3776 19.885 21.0313 20.4427 20.0386 21.4354C19.046 22.428 18.4883 23.7744 18.4883 25.1782C18.4883 26.5821 19.046 27.9284 20.0386 28.9211L21.0585 29.941L28.5442 37.4267L36.0299 29.941L37.0498 28.9211C37.5415 28.4296 37.9315 27.8461 38.1976 27.2039C38.4637 26.5617 38.6007 25.8734 38.6007 25.1782C38.6007 24.4831 38.4637 23.7947 38.1976 23.1525C37.9315 22.5103 37.5415 21.9268 37.0498 21.4354Z" fill="white" stroke="white" stroke-width="1.92434" stroke-linecap="round" stroke-linejoin="round"/>
</svg>
