<svg width="17" height="16" viewBox="0 0 17 16" fill="none" xmlns="http://www.w3.org/2000/svg">
<path d="M11.7656 1.33301H5.09896C3.25801 1.33301 1.76562 2.82539 1.76562 4.66634V11.333C1.76562 13.174 3.25801 14.6663 5.09896 14.6663H11.7656C13.6066 14.6663 15.099 13.174 15.099 11.333V4.66634C15.099 2.82539 13.6066 1.33301 11.7656 1.33301Z" stroke="black" stroke-width="1.33333" stroke-linecap="round" stroke-linejoin="round"/>
<path d="M11.1014 7.5802C11.1836 8.13503 11.0889 8.70168 10.8305 9.19954C10.5722 9.69741 10.1635 10.1011 9.66245 10.3533C9.16144 10.6055 8.59367 10.6933 8.03989 10.6042C7.48612 10.515 6.97454 10.2536 6.57793 9.85698C6.18131 9.46036 5.91986 8.94878 5.83075 8.39501C5.74164 7.84124 5.82941 7.27346 6.08158 6.77245C6.33376 6.27144 6.73749 5.86269 7.23536 5.60436C7.73322 5.34603 8.29987 5.25126 8.8547 5.33353C9.42065 5.41746 9.9446 5.68118 10.3492 6.08574C10.7537 6.4903 11.0174 7.01425 11.1014 7.5802Z" stroke="black" stroke-width="1.33333" stroke-linecap="round" stroke-linejoin="round"/>
<path d="M12.1016 4.33301H12.1082" stroke="black" stroke-width="1.33333" stroke-linecap="round" stroke-linejoin="round"/>
</svg>
