<svg width="53" height="53" viewBox="0 0 53 53" fill="none" xmlns="http://www.w3.org/2000/svg">
<g clip-path="url(#clip0_476_999)">
<path d="M50.1589 17.5103H38.2422V19.6769H50.1589V17.5103Z" fill="white"/>
<path d="M29.5712 19.6774H16.5713C16.2788 19.6774 16.0079 19.5583 15.8021 19.3633L4.96875 8.52994L6.49625 7.00244L17.0154 17.5108H29.5712V19.6774Z" fill="white"/>
<path d="M47.987 21.8442H36.0703V24.0109H47.987V21.8442Z" fill="white"/>
<path d="M27.4033 24.0104H14.4033C14.1108 24.0104 13.8399 23.8913 13.6341 23.6963L2.80078 12.8629L4.32828 11.3354L14.8474 21.8438H27.4033V24.0104Z" fill="white"/>
<path d="M45.8186 28.3442H12.2353C11.9428 28.3442 11.672 28.2251 11.4661 28.0301L0.632812 17.1967L2.16031 15.6692L12.6795 26.1776H45.8186V28.3442ZM51.2353 15.3442H18.7353C18.4428 15.3442 18.172 15.2251 17.9661 15.0301L7.13281 4.19674C6.82948 3.88257 6.73198 3.41674 6.90531 3.0159C7.06781 2.60424 7.46865 2.34424 7.90198 2.34424H40.402C40.6945 2.34424 40.9653 2.4634 41.1711 2.6584L52.0045 13.4917C52.3186 13.8059 52.4053 14.2717 52.2428 14.6726C52.0695 15.0842 51.6686 15.3442 51.2353 15.3442ZM19.1795 13.1776H48.6136L39.947 4.51091H10.5128L19.1795 13.1776Z" fill="white"/>
<path d="M39.3143 15.3442H30.6476C30.3551 15.3442 30.0843 15.2251 29.8785 15.0301L19.0451 4.19674C18.731 3.88257 18.6443 3.41674 18.8068 3.0159C18.9801 2.60424 19.381 2.34424 19.8143 2.34424H28.481C28.7735 2.34424 29.0443 2.4634 29.2501 2.6584L40.0835 13.4917C40.3976 13.8059 40.4843 14.2717 40.3218 14.6726C40.1485 15.0842 39.7476 15.3442 39.3143 15.3442ZM31.0918 13.1776H36.6926L28.026 4.51091H22.4251L31.0918 13.1776Z" fill="white"/>
<path d="M34.987 28.3439H26.3203C25.9736 28.3439 25.6486 28.1814 25.4428 27.8889C25.237 27.6072 25.1828 27.2389 25.2911 26.9139L29.6245 13.9139C29.7761 13.4806 30.1878 13.1772 30.6536 13.1772H39.3203C39.667 13.1772 39.992 13.3397 40.1978 13.6214C40.4036 13.9031 40.4578 14.2714 40.3495 14.5964L36.0161 27.5964C35.8645 28.0406 35.4528 28.3439 34.987 28.3439ZM27.8261 26.1772H34.207L37.8145 15.3439H31.4336L27.8261 26.1772ZM10.0703 46.7606H1.40365C0.807813 46.7606 0.320312 46.2731 0.320312 45.6772V30.5106C0.320312 29.9147 0.807813 29.4272 1.40365 29.4272H10.0703C10.6661 29.4272 11.1536 29.9147 11.1536 30.5106V45.6772C11.1536 46.2731 10.6661 46.7606 10.0703 46.7606ZM2.48698 44.5939H8.98698V31.5939H2.48698V44.5939Z" fill="white"/>
<path d="M29.5665 50.0106C29.4906 50.0106 29.404 49.9998 29.3281 49.9889L9.82812 45.6556L10.294 43.5431L29.4148 47.7898L50.1498 37.4223V34.1073L36.359 38.0506L35.7631 35.9706L50.9298 31.6373C51.2548 31.5506 51.6123 31.6156 51.8831 31.8106C52.154 32.0164 52.3165 32.3414 52.3165 32.6773V38.0939C52.3165 38.5056 52.089 38.8739 51.7206 39.0581L30.054 49.8914C29.9023 49.9673 29.729 50.0106 29.5665 50.0106Z" fill="white"/>
<path d="M26.3203 42.4269C26.2228 42.4269 26.1253 42.4161 26.0278 42.3836L18.4445 40.2169L19.0403 38.1369L26.3636 40.2278L34.987 38.3103V35.9269H27.4036C27.2303 35.9269 27.0678 35.8836 26.9161 35.8078L20.6436 32.6769H10.0703V30.5103H20.9036C21.077 30.5103 21.2395 30.5536 21.3911 30.6294L27.6636 33.7603H36.0703C36.6661 33.7603 37.1536 34.2478 37.1536 34.8436V39.1769C37.1536 39.6861 36.7961 40.1194 36.3086 40.2386L26.5586 42.4053C26.4828 42.4161 26.3961 42.4269 26.3203 42.4269Z" fill="white"/>
<path d="M6.8151 40.2603H4.64844V42.4269H6.8151V40.2603Z" fill="white"/>
</g>
<defs>
<clipPath id="clip0_476_999">
<rect width="52" height="52" fill="white" transform="translate(0.320312 0.177246)"/>
</clipPath>
</defs>
</svg>
