<svg width="20" height="20" viewBox="0 0 20 20" fill="none" xmlns="http://www.w3.org/2000/svg">
<g clip-path="url(#clip0_476_1347)">
<path d="M20 9.70588C20 4.34547 15.6545 0 10.2941 0H10C4.47715 0 0 4.47715 0 10V10C0 15.5228 4.47715 20 10 20V20C15.5228 20 20 15.5228 20 10V9.70588Z" fill="black"/>
<path d="M13.5 8.83398L10 12.334L6.5 8.83398" stroke="white" stroke-width="1.3617" stroke-linecap="round" stroke-linejoin="round"/>
</g>
<defs>
<clipPath id="clip0_476_1347">
<path d="M20 9.70588C20 4.34547 15.6545 0 10.2941 0H10C4.47715 0 0 4.47715 0 10V10C0 15.5228 4.47715 20 10 20V20C15.5228 20 20 15.5228 20 10V9.70588Z" fill="white"/>
</clipPath>
</defs>
</svg>
