<svg width="17" height="16" viewBox="0 0 17 16" fill="none" xmlns="http://www.w3.org/2000/svg">
<path d="M2.09929 11.3333C1.63357 9.13551 1.63357 6.86449 2.09929 4.66667C2.16048 4.44347 2.27871 4.24005 2.44236 4.0764C2.60601 3.91276 2.80943 3.79453 3.03262 3.73333C6.60825 3.14097 10.257 3.14097 13.8326 3.73333C14.0558 3.79453 14.2592 3.91276 14.4229 4.0764C14.5865 4.24005 14.7048 4.44347 14.766 4.66667C15.2317 6.86449 15.2317 9.13551 14.766 11.3333C14.7048 11.5565 14.5865 11.7599 14.4229 11.9236C14.2592 12.0872 14.0558 12.2055 13.8326 12.2667C10.257 12.8591 6.60824 12.8591 3.03262 12.2667C2.80943 12.2055 2.60601 12.0872 2.44236 11.9236C2.27871 11.7599 2.16048 11.5565 2.09929 11.3333Z" stroke="black" stroke-width="1.33333" stroke-linecap="round" stroke-linejoin="round"/>
<path d="M7.10156 10L10.4349 8L7.10156 6V10Z" stroke="black" stroke-width="1.33333" stroke-linecap="round" stroke-linejoin="round"/>
</svg>
