<svg width="16" height="16" viewBox="0 0 16 16" fill="none" xmlns="http://www.w3.org/2000/svg">
<path d="M7.66953 1.47218C7.69764 1.41539 7.74107 1.36758 7.79491 1.33416C7.84874 1.30073 7.91085 1.28302 7.97422 1.28302C8.03759 1.28302 8.0997 1.30073 8.15354 1.33416C8.20738 1.36758 8.2508 1.41539 8.27891 1.47218L9.76065 4.47351C9.85827 4.67106 10.0024 4.84196 10.1806 4.97157C10.3588 5.10117 10.5658 5.18559 10.7838 5.21759L14.0975 5.70252C14.1603 5.71162 14.2193 5.73811 14.2678 5.77898C14.3163 5.81986 14.3524 5.8735 14.372 5.93383C14.3917 5.99417 14.394 6.05879 14.3788 6.12039C14.3636 6.18198 14.3315 6.2381 14.2861 6.28239L11.8896 8.61598C11.7316 8.76999 11.6133 8.9601 11.5451 9.16995C11.4768 9.3798 11.4605 9.6031 11.4977 9.82062L12.0635 13.1177C12.0745 13.1804 12.0678 13.245 12.0439 13.3041C12.02 13.3632 11.98 13.4144 11.9285 13.4518C11.8769 13.4893 11.8158 13.5115 11.7523 13.5159C11.6887 13.5204 11.6251 13.5068 11.5689 13.4769L8.60669 11.9194C8.41151 11.8169 8.19435 11.7634 7.9739 11.7634C7.75345 11.7634 7.53629 11.8169 7.34111 11.9194L4.37955 13.4769C4.32332 13.5066 4.25986 13.52 4.19639 13.5155C4.13292 13.511 4.07199 13.4888 4.02053 13.4513C3.96907 13.4139 3.92915 13.3628 3.9053 13.3038C3.88145 13.2448 3.87464 13.1803 3.88564 13.1177L4.45075 9.82126C4.48808 9.60364 4.47191 9.3802 4.40363 9.17022C4.33535 8.96024 4.21701 8.77003 4.05883 8.61598L1.66238 6.28303C1.61658 6.2388 1.58412 6.18258 1.5687 6.1208C1.55329 6.05901 1.55554 5.99414 1.57519 5.93357C1.59485 5.873 1.63112 5.81917 1.67988 5.7782C1.72863 5.73724 1.78791 5.7108 1.85097 5.70188L5.16404 5.21759C5.3823 5.18584 5.58957 5.10153 5.76802 4.97191C5.94647 4.84229 6.09074 4.67125 6.18843 4.47351L7.66953 1.47218Z" stroke="white" stroke-width="1.28289" stroke-linecap="round" stroke-linejoin="round"/>
</svg>
