<svg width="16" height="16" viewBox="0 0 16 16" fill="none" xmlns="http://www.w3.org/2000/svg">
<path d="M7.39219 1.47212C7.4203 1.41532 7.46373 1.36752 7.51756 1.33409C7.5714 1.30067 7.63351 1.28296 7.69688 1.28296C7.76025 1.28296 7.82236 1.30067 7.87619 1.33409C7.93003 1.36752 7.97346 1.41532 8.00157 1.47212L9.48331 4.47345C9.58092 4.671 9.72502 4.8419 9.90322 4.9715C10.0814 5.10111 10.2884 5.18553 10.5064 5.21753L13.8201 5.70246C13.8829 5.71156 13.9419 5.73805 13.9904 5.77892C14.039 5.8198 14.0751 5.87344 14.0947 5.93377C14.1143 5.99411 14.1167 6.05873 14.1015 6.12033C14.0863 6.18192 14.0541 6.23804 14.0087 6.28233L11.6123 8.61592C11.4542 8.76993 11.336 8.96004 11.2677 9.16989C11.1994 9.37974 11.1832 9.60303 11.2203 9.82056L11.7861 13.1176C11.7972 13.1804 11.7904 13.245 11.7665 13.3041C11.7427 13.3631 11.7027 13.4143 11.6511 13.4518C11.5995 13.4892 11.5385 13.5114 11.4749 13.5159C11.4113 13.5203 11.3478 13.5068 11.2916 13.4768L8.32935 11.9194C8.13416 11.8169 7.91701 11.7633 7.69656 11.7633C7.47611 11.7633 7.25895 11.8169 7.06377 11.9194L4.10221 13.4768C4.04597 13.5066 3.98251 13.52 3.91904 13.5155C3.85557 13.5109 3.79464 13.4887 3.74319 13.4513C3.69173 13.4139 3.6518 13.3627 3.62796 13.3038C3.60411 13.2448 3.5973 13.1803 3.60829 13.1176L4.17341 9.8212C4.21074 9.60357 4.19457 9.38014 4.12629 9.17016C4.05801 8.96018 3.93967 8.76996 3.78148 8.61592L1.38504 6.28297C1.33923 6.23873 1.30678 6.18252 1.29136 6.12073C1.27595 6.05895 1.27819 5.99408 1.29785 5.93351C1.3175 5.87294 1.35378 5.81911 1.40253 5.77814C1.45129 5.73718 1.51057 5.71074 1.57362 5.70182L4.8867 5.21753C5.10495 5.18578 5.31223 5.10146 5.49067 4.97185C5.66912 4.84223 5.8134 4.67119 5.91109 4.47345L7.39219 1.47212Z" fill="#616D6B" stroke="#616D6B" stroke-width="1.28289" stroke-linecap="round" stroke-linejoin="round"/>
</svg>
