<svg width="16" height="16" viewBox="0 0 16 16" fill="none" xmlns="http://www.w3.org/2000/svg">
<path d="M5.33073 14.6673C5.69892 14.6673 5.9974 14.3688 5.9974 14.0007C5.9974 13.6325 5.69892 13.334 5.33073 13.334C4.96254 13.334 4.66406 13.6325 4.66406 14.0007C4.66406 14.3688 4.96254 14.6673 5.33073 14.6673Z" stroke="black" stroke-width="1.33333" stroke-linecap="round" stroke-linejoin="round"/>
<path d="M12.6667 14.6673C13.0349 14.6673 13.3333 14.3688 13.3333 14.0007C13.3333 13.6325 13.0349 13.334 12.6667 13.334C12.2985 13.334 12 13.6325 12 14.0007C12 14.3688 12.2985 14.6673 12.6667 14.6673Z" stroke="black" stroke-width="1.33333" stroke-linecap="round" stroke-linejoin="round"/>
<path d="M1.36719 1.36719H2.70052L4.47385 9.64719C4.53891 9.95043 4.70763 10.2215 4.951 10.4138C5.19436 10.606 5.49712 10.7074 5.80719 10.7005H12.3272C12.6306 10.7 12.9248 10.596 13.1612 10.4057C13.3976 10.2154 13.5619 9.95021 13.6272 9.65385L14.7272 4.70052H3.41385" stroke="black" stroke-width="1.33333" stroke-linecap="round" stroke-linejoin="round"/>
</svg>
